<svg version="1" xmlns="http://www.w3.org/2000/svg" width="149.333" height="149.333" viewBox="0 0 112.000000 112.000000"><path d="M36 6c0 1.3-.7 2-2 2-1.7 0-2 .7-2 4s.3 4 2 4c1.8 0 2 .7 2 6v6h-4c-3.3 0-4 .3-4 2s-.7 2-4 2-4 .3-4 2-.7 2-4 2-4 .3-4 2c0 1.3-.7 2-2 2s-2 .7-2 2-.7 2-2 2-2 .7-2 2-.7 2-2 2c-1.9 0-2 .7-2 18s.1 18 2 18c1.8 0 2 .7 2 6s.2 6 2 6 2 .7 2 6 .2 6 2 6c1.3 0 2 .7 2 2 0 2 .7 2 44 2s44 0 44-2c0-1.3.7-2 2-2 1.8 0 2-.7 2-6s.2-6 2-6 2-.7 2-6 .2-6 2-6c1.9 0 2-.7 2-18s-.1-18-2-18c-1.3 0-2-.7-2-2s-.7-2-2-2-2-.7-2-2-.7-2-2-2-2-.7-2-2c0-1.7-.7-2-4-2s-4-.3-4-2-.7-2-4-2-4-.3-4-2-.7-2-4-2h-4v-6c0-5.3.2-6 2-6 1.7 0 2-.7 2-4s-.3-4-2-4c-1.3 0-2-.7-2-2s-.7-2-2-2-2 .7-2 2-.7 2-2 2c-1.8 0-2 .7-2 6s-.2 6-2 6c-1.3 0-2 .7-2 2 0 1.8-.7 2-8 2s-8-.2-8-2c0-1.3-.7-2-2-2-1.8 0-2-.7-2-6s-.2-6-2-6c-1.3 0-2-.7-2-2s-.7-2-2-2-2 .7-2 2z"/></svg>